<?xml version="1.0" encoding="UTF-8"?>
<svg version="1.1" xmlns="http://www.w3.org/2000/svg" width="220" height="397">
<path d="M0 0 C0 3.98465758 -1.71844245 6.73187954 -3.515625 10.18359375 C-4.27435391 11.66901239 -5.0327207 13.15461604 -5.79077148 14.64038086 C-6.19206268 15.42218719 -6.59335388 16.20399353 -7.00680542 17.00949097 C-32.66846615 67.12774684 -49.17367013 119.13024328 -62.36767578 173.65087891 C-80.49690775 248.48937954 -104.70252335 333.07203204 -151 396 C-151.66 396.33 -152.32 396.66 -153 397 C-152.41424887 394.36063561 -151.82827125 391.72132179 -151.2421875 389.08203125 C-151.06130585 388.26692581 -150.88042419 387.45182037 -150.69406128 386.61201477 C-149.80759644 382.62066147 -148.91824969 378.63004307 -148.01660156 374.64208984 C-141.42423495 345.47064495 -135.19224903 315.88304913 -133 286 C-132.94505371 285.29117676 -132.89010742 284.58235352 -132.83349609 283.85205078 C-130.91351559 258.42788423 -130.18593735 230.88225474 -143 208 C-143.34289062 207.27296875 -143.68578125 206.5459375 -144.0390625 205.796875 C-145.31967336 203.4022368 -146.51067232 203.03721987 -149 202 C-150.2065625 201.195625 -150.2065625 201.195625 -151.4375 200.375 C-159.67963877 197.19382363 -168.40662314 198.40964375 -176.42578125 201.734375 C-183.1256681 205.02840131 -188.43493436 208.31550192 -192 215 C-195.36765482 225.10296446 -192.39399082 234.75145841 -188 244 C-186.75312488 246.41806134 -185.44798029 248.69395732 -184 251 C-197.16545145 246.03710731 -207.9112148 235.61657371 -214 223 C-216.32706198 217.51531695 -218.50223206 211.97321529 -219 206 C-219.06316406 205.26007813 -219.12632812 204.52015625 -219.19140625 203.7578125 C-219.73829284 191.86743961 -216.87528749 179.12533312 -209 170 C-208.42121094 169.28972656 -207.84242188 168.57945312 -207.24609375 167.84765625 C-189.9907379 148.63376686 -160.29819226 138.97023608 -137.17822266 128.83325195 C-116.98967215 120.50805214 -116.98967215 120.50805214 -98.375 109.3125 C-97.32747559 108.54860962 -97.32747559 108.54860962 -96.25878906 107.76928711 C-84.68630021 99.19993508 -74.339842 89.50659802 -64.125 79.375 C-63.25713867 78.51656494 -62.38927734 77.65812988 -61.49511719 76.77368164 C-56.33605317 71.588437 -51.58038517 66.21896855 -47.02783203 60.49316406 C-45.02188521 58.02690727 -42.92139012 55.69592252 -40.75 53.375 C-34.9001047 46.95338719 -29.77297314 39.98048818 -24.55175781 33.04833984 C-23.17068186 31.2253022 -21.77531842 29.41545035 -20.3671875 27.61328125 C-13.97726943 19.42555665 -7.98294269 10.99495635 -2.05639648 2.46777344 C-1 1 -1 1 0 0 Z " fill="#FFCE00" transform="translate(219,0)"/>
<path d="M0 0 C7.50508998 6.135446 13.05499827 13.91184741 14.36816406 23.73925781 C15.45098971 36.99328566 12.62534704 48.26792789 4.09765625 58.71484375 C-1.830908 65.17763027 -10.88076199 71.06955959 -19.82836914 71.8918457 C-32.75918438 72.25672874 -42.00417248 72.15008259 -52.21484375 63.40234375 C-61.24543326 54.71146294 -64.9527803 46.98592697 -65.33984375 34.27734375 C-65.0447881 21.53863691 -59.87666521 11.26798476 -50.77734375 2.46484375 C-36.39168799 -9.75077241 -15.30068895 -11.03700491 0 0 Z " fill="#FFCE00" transform="translate(101.90234375,19.28515625)"/>
</svg>
