<?xml version="1.0" encoding="UTF-8"?>
<svg version="1.1" xmlns="http://www.w3.org/2000/svg" width="1291" height="416">
<path d="M0 0 C7.70122856 6.65679965 12.97800344 13.6978151 17.24609375 22.890625 C20.18557634 20.04021764 22.94742742 17.11780219 25.62109375 14.015625 C26.82903069 12.64027676 28.03735522 11.26526881 29.24609375 9.890625 C29.74496094 9.30023438 30.24382812 8.70984375 30.7578125 8.1015625 C42.27919868 -4.60968975 60.65477138 -10.19744111 77.2734375 -11.3125 C94.94922637 -11.59721069 111.48793264 -7.7632852 125.30859375 3.765625 C138.26746918 16.45298113 143.36356236 32.20701232 143.58943462 50.02650166 C143.60088709 52.15323961 143.59759261 54.27949793 143.58984375 56.40625 C143.5893251 57.16472481 143.58880646 57.92319962 143.58827209 58.70465851 C143.53190542 80.63277253 141.69521618 102.47859899 140.00115967 124.32806396 C139.56899471 129.94062411 139.15245787 135.55434521 138.734375 141.16796875 C137.91973209 152.07668473 137.08713638 162.98391263 136.24609375 173.890625 C124.36609375 173.890625 112.48609375 173.890625 100.24609375 173.890625 C100.57202515 169.29060547 100.57202515 169.29060547 100.90454102 164.59765625 C101.62465648 154.41239207 102.33310436 144.22633984 103.03596592 134.03987122 C103.46204309 127.8699264 103.8919238 121.70029792 104.33081055 115.53125 C104.75500669 109.56664544 105.16880195 103.60139848 105.57569695 97.6355896 C105.73192718 95.37102956 105.89176791 93.10671533 106.05545235 90.84268188 C108.68925453 60.42153148 108.68925453 60.42153148 97.16796875 32.984375 C90.26426805 25.46327018 81.30076151 23.60414903 71.43359375 22.92578125 C59.74431227 22.79685535 48.1573884 26.38958985 39.53515625 34.5 C24.8579984 50.01035895 24.79707181 71.30403243 23.45703125 91.390625 C23.30764692 93.52341752 23.15737173 95.65614781 23.0062561 97.78881836 C22.61394098 103.35483111 22.23231444 108.92152155 21.85345459 114.48846436 C21.24317086 123.42406337 20.61495725 132.35842675 19.98942947 141.29296875 C19.77343993 144.39695335 19.56117619 147.50117369 19.34970093 150.60546875 C19.21803203 152.51432532 19.08633009 154.42317961 18.95458984 156.33203125 C18.89744308 157.18515396 18.84029633 158.03827667 18.78141785 158.91725159 C18.72547958 159.72129929 18.66954132 160.52534698 18.61190796 161.35375977 C18.5651058 162.04091568 18.51830364 162.72807159 18.47008324 163.43605042 C18.15122916 166.93019264 17.68128951 170.40905891 17.24609375 173.890625 C5.36609375 173.890625 -6.51390625 173.890625 -18.75390625 173.890625 C-18.54185547 170.95559082 -18.32980469 168.02055664 -18.11132812 164.99658203 C-17.40696096 155.23417213 -16.70971227 145.47126287 -16.01584625 135.70810127 C-15.59547375 129.79620114 -15.1728007 123.88448532 -14.74462891 117.97314453 C-14.33051764 112.25469341 -13.9227644 106.53581943 -13.5191803 100.81661606 C-13.3651213 98.648703 -13.20887795 96.48094387 -13.05027771 94.31335831 C-12.308029 84.15103923 -11.62149492 74.01294367 -11.58789062 63.81982422 C-11.58239574 62.74968677 -11.58239574 62.74968677 -11.57678986 61.65793037 C-11.65111984 50.43717762 -14.74614764 39.88706957 -22.828125 31.8203125 C-31.78647649 24.34720253 -42.02653588 22.32835744 -53.54296875 23.0703125 C-63.11964156 24.42263805 -73.03522971 28.85945188 -79.75390625 35.890625 C-91.66064002 51.92717183 -93.90789969 68.24058318 -95.19140625 87.50390625 C-95.31763735 89.32265098 -95.44452169 91.14135048 -95.57202148 92.96000671 C-95.90553522 97.73711001 -96.2318067 102.51467764 -96.55603027 107.29241943 C-97.07299816 114.89688634 -97.59987675 122.50066575 -98.12893677 130.10429955 C-98.30994598 132.72294599 -98.48716255 135.34182644 -98.66381836 137.96076965 C-99.48458352 149.96125992 -100.57541856 161.91955468 -101.75390625 173.890625 C-113.30390625 173.890625 -124.85390625 173.890625 -136.75390625 173.890625 C-136.09694067 154.30259159 -134.85418235 134.80154353 -133.4312923 115.25869632 C-133.12278724 111.00959019 -132.81887375 106.76015539 -132.51441956 102.51075745 C-131.94033035 94.50735172 -131.36226594 86.50423859 -130.78267866 78.50122935 C-130.12170677 69.37166702 -129.46531038 60.2417774 -128.80924881 51.11186111 C-127.46246543 32.37108625 -126.10949378 13.63076522 -124.75390625 -5.109375 C-113.53390625 -5.109375 -102.31390625 -5.109375 -90.75390625 -5.109375 C-91.08390625 1.820625 -91.41390625 8.750625 -91.75390625 15.890625 C-90.76390625 14.715 -89.77390625 13.539375 -88.75390625 12.328125 C-67.22089583 -11.9338214 -27.19405868 -20.82949175 0 0 Z " fill="#000000" transform="translate(553.75390625,198.109375)"/>
<path d="M0 0 C13.2 0 26.4 0 40 0 C40 7.10912769 39.98342363 14.01485838 39.46508789 21.06982422 C39.40817276 21.89099228 39.35125763 22.71216034 39.2926178 23.55821228 C39.10675834 26.22401296 38.91489507 28.8893399 38.72265625 31.5546875 C38.59024465 33.4288637 38.45812395 35.30306048 38.32627869 37.17727661 C38.0506614 41.08224581 37.77216408 44.98699516 37.49145508 48.89160156 C37.13241985 53.88775804 36.77972096 58.88433732 36.42903996 63.88108635 C36.15755682 67.74172496 35.88321798 71.60215642 35.60796928 75.46252823 C35.47683554 77.30521332 35.34647209 79.1479534 35.21690559 80.99074936 C35.03553309 83.5628922 34.85042932 86.13474006 34.66430664 88.70654297 C34.61179749 89.46093155 34.55928833 90.21532013 34.50518799 90.99256897 C34.20540813 95.07430802 33.6759192 98.94448478 33 103 C67.32 103 101.64 103 137 103 C137.33 95.08 137.66 87.16 138 79 C138.35833501 73.13210709 138.73364 67.26928294 139.15625 61.40625 C139.26476485 59.86789604 139.37303494 58.32952479 139.4810791 56.7911377 C139.70414176 53.62541212 139.92948469 50.45986102 140.15673828 47.29443359 C140.44639398 43.2583305 140.73093286 39.22188564 141.01392365 35.18531036 C141.23530759 32.03322471 141.45887864 28.88129722 141.68315125 25.72941589 C141.78895678 24.24004593 141.89420534 22.75063628 141.99885559 21.26118469 C142.14487406 19.18893695 142.29373678 17.11691212 142.44335938 15.04492188 C142.52694702 13.87376831 142.61053467 12.70261475 142.69665527 11.49597168 C143.03003374 7.65386865 143.52165515 3.82675883 144 0 C157.2 0 170.4 0 184 0 C183.35872266 14.34867649 182.53257583 28.66639177 181.52539062 42.9934082 C181.37889377 45.10171203 181.23259342 47.21002952 181.08647156 49.31835938 C180.69398854 54.97258194 180.29863908 60.62660049 179.90260124 66.28057504 C179.48659451 72.22505288 179.07289031 78.16969107 178.65881348 84.11430359 C177.96446306 94.07721359 177.26819368 104.03998809 176.57080078 114.00268555 C175.76542625 125.50836893 174.96331927 137.01427672 174.16288805 148.52030498 C173.39015499 159.6268636 172.61494535 170.73324808 171.83866882 181.83955956 C171.50930355 186.55261688 171.1808357 191.26573547 170.85310364 195.97890663 C170.46767413 201.52040821 170.08008447 207.0617546 169.69083595 212.6029892 C169.54858497 214.63302797 169.40707838 216.66311906 169.2663784 218.69326591 C169.07395061 221.46800582 168.87880393 224.24254183 168.6829834 227.01704407 C168.62821414 227.81597071 168.57344487 228.61489734 168.51701593 229.43803388 C168.46339065 230.18994164 168.40976537 230.9418494 168.35451508 231.71654224 C168.30987043 232.35523992 168.26522578 232.9939376 168.21922827 233.65198976 C167.89634829 237.1101455 167.43079698 240.55362414 167 244 C153.8 244 140.6 244 127 244 C127.62161044 230.10017158 128.41024443 216.23250798 129.41015625 202.35546875 C129.52850047 200.6890212 129.64662313 199.02255791 129.76452637 197.3560791 C130.19452492 191.29969667 130.62874674 185.24361468 131.0625 179.1875 C132.031875 165.595625 133.00125 152.00375 134 138 C100.01 138 66.02 138 31 138 C29.44381444 161.42133589 29.44381444 161.42133589 27.88916016 184.84277344 C27.31592392 193.47110073 26.73619517 202.09898014 26.1532135 210.72665405 C26.00326307 212.95158333 25.85444552 215.17658568 25.70593262 217.40161133 C25.44160028 221.35661774 25.17053654 225.31114489 24.8984375 229.265625 C24.78310165 231.00437897 24.78310165 231.00437897 24.66543579 232.77825928 C24.59198944 233.82886536 24.51854309 234.87947144 24.44287109 235.96191406 C24.35010391 237.32319427 24.35010391 237.32319427 24.25546265 238.7119751 C24 241 24 241 23 244 C10.13 244 -2.74 244 -16 244 C-16 226.76987464 -16 226.76987464 -15.39257812 218.50245667 C-15.32724129 217.5545068 -15.26190445 216.60655694 -15.19458771 215.62988132 C-14.97840591 212.51143235 -14.75486525 209.39355878 -14.53125 206.27563477 C-14.37316798 204.01732465 -14.21554738 201.75898219 -14.05834961 199.50061035 C-13.63327937 193.41251471 -13.20181032 187.32488798 -12.76913452 181.23732877 C-12.31693947 174.85948703 -11.87070897 168.48122798 -11.42382812 162.10301208 C-10.67393939 151.41145255 -9.92041706 140.72015637 -9.1640625 130.02905273 C-8.38555465 119.02466815 -7.60927131 108.02013031 -6.8359375 97.01538086 C-6.78814557 96.33529972 -6.74035364 95.65521859 -6.69111347 94.95452894 C-6.4513323 91.54223867 -6.21159442 88.12994536 -5.97187805 84.71765053 C-3.98796161 56.47795926 -1.99619485 28.23882578 0 0 Z " fill="#000000" transform="translate(16,128)"/>
<path d="M0 0 C0.99 0.495 0.99 0.495 2 1 C1.65855957 1.59723877 1.31711914 2.19447754 0.96533203 2.80981445 C-3.05598437 9.85486441 -7.04227786 16.91902904 -11 24 C-11.44730469 24.79937988 -11.89460938 25.59875977 -12.35546875 26.42236328 C-38.03170978 72.69568601 -55.40410756 123.40794161 -67.7265625 174.70556641 C-75.02835707 205.09769771 -82.35609028 235.36972322 -92.33325195 265.0100708 C-93.00751416 267.02242624 -93.67217555 269.03771639 -94.33398438 271.05419922 C-103.76475323 299.76262612 -114.89878009 327.75743686 -128 355 C-128.53737793 356.11858398 -129.07475586 357.23716797 -129.62841797 358.38964844 C-155.401603 411.7008015 -155.401603 411.7008015 -164 416 C-162.91902808 409.41156775 -161.55763789 402.90700766 -160.046875 396.40625 C-159.86512726 395.62339127 -159.68337952 394.84053253 -159.49612427 394.03395081 C-159.30871674 393.22683151 -159.1213092 392.41971222 -158.92822266 391.58813477 C-137.71014359 309.55680655 -137.71014359 309.55680655 -151.37890625 229.45703125 C-155.40331927 223.0158689 -159.51388819 218.32360929 -167.125 216.5 C-176.83506476 215.11473261 -186.05967506 218.50536036 -194 224 C-198.8129093 228.08051006 -201.28348942 232.13395766 -202.8125 238.25 C-203.3394985 248.78996991 -198.84120995 256.93414929 -194 266 C-193.32817042 267.33073936 -192.65874995 268.6627376 -192 270 C-198.76360478 268.06043687 -203.48764032 264.23137654 -209 260 C-210.051875 259.236875 -211.10375 258.47375 -212.1875 257.6875 C-223.47737713 246.89939519 -229.09845897 233.4331996 -229.96142578 217.99609375 C-230.2064879 205.31490449 -226.56081975 194.06787618 -218.375 184.4375 C-201.40367731 167.01956356 -175.64370892 157.57213349 -153.84375 147.921875 C-152.6559494 147.39600548 -152.6559494 147.39600548 -151.44415283 146.85951233 C-147.52556075 145.12749224 -143.60320369 143.40472785 -139.67480469 141.69506836 C-121.75819923 133.86262016 -105.7501526 124.72900759 -91.43359375 111.28515625 C-89.39604007 109.37188353 -87.32283837 107.55126852 -85.1875 105.75 C-76.15209046 97.89068715 -67.70422376 89.15909864 -60 80 C-59.1028972 78.96498747 -58.20431725 77.93125438 -57.3046875 76.8984375 C-50.83824922 69.45539637 -44.60239107 61.87119513 -38.58691406 54.05957031 C-37.45105188 52.58539594 -36.31201588 51.11366487 -35.17089844 49.64355469 C-25.65961939 37.383625 -16.60883906 24.90874504 -8 12 C-7.13949439 10.7160309 -6.2788282 9.43216939 -5.41796875 8.1484375 C-3.60352246 5.43785974 -1.79803712 2.7215003 0 0 Z " fill="#FFCE00" transform="translate(1270,0)"/>
<path d="M0 0 C16.45774636 14.89914759 26.76877474 34.89455031 28.43359375 57.203125 C28.78258232 66.56445577 28.91057835 75.93268974 27.43359375 85.203125 C26.43359375 86.203125 26.43359375 86.203125 23.93670559 86.32617283 C22.81672711 86.32525104 21.69674864 86.32432924 20.54283142 86.32337952 C18.6223423 86.32544151 18.6223423 86.32544151 16.66305542 86.32754517 C15.23101784 86.32400555 13.79898049 86.32037073 12.36694336 86.31665039 C10.86927797 86.31636853 9.37161245 86.31652624 7.87394714 86.3170929 C3.79561203 86.31738091 -0.28269392 86.31148364 -4.36102223 86.30451894 C-8.61848253 86.29828595 -12.87594343 86.29768165 -17.13340759 86.29649353 C-25.20113812 86.29338005 -33.26885516 86.28516644 -41.33657974 86.27514404 C-50.51901404 86.26398342 -59.70144897 86.25847258 -68.88388836 86.25344861 C-87.77806865 86.24298384 -106.67223637 86.22538407 -125.56640625 86.203125 C-125.28539426 88.57281626 -124.9949755 90.94073467 -124.69921875 93.30859375 C-124.6216333 93.97113159 -124.54404785 94.63366943 -124.46411133 95.31628418 C-122.91510478 107.51003376 -117.22923548 117.3705868 -108.02734375 125.42578125 C-101.69291405 130.30895112 -95.11646713 133.61303467 -87.56640625 136.203125 C-86.86515625 136.44933594 -86.16390625 136.69554687 -85.44140625 136.94921875 C-69.42155777 141.4860899 -52.2480555 137.74386274 -37.90234375 130.22265625 C-29.58909732 125.18992978 -21.96251001 117.99533252 -17.56640625 109.203125 C-5.35640625 109.203125 6.85359375 109.203125 19.43359375 109.203125 C12.07498508 131.27895101 -8.04859893 149.90018269 -28.48046875 160.23828125 C-42.8538336 167.12310698 -56.37178309 169.5365826 -72.25390625 169.640625 C-73.45297607 169.65085693 -74.6520459 169.66108887 -75.88745117 169.67163086 C-100.11732987 169.43439206 -120.62053422 160.12433055 -137.56640625 143.203125 C-138.23542969 142.54570312 -138.90445313 141.88828125 -139.59375 141.2109375 C-156.92439764 122.89782685 -161.24552566 98.10056076 -160.875 73.89453125 C-160.38847869 59.49067416 -155.96338106 47.00053993 -149.56640625 34.203125 C-149.04304687 33.15511719 -148.5196875 32.10710937 -147.98046875 31.02734375 C-135.43323299 7.92206813 -113.48728768 -8.97251915 -88.56640625 -16.796875 C-57.73145666 -25.28094205 -24.89767058 -20.87420702 0 0 Z M-108.24609375 28.7890625 C-116.18293527 37.04658448 -121.68202125 46.89681499 -123.56640625 58.203125 C-84.95640625 58.203125 -46.34640625 58.203125 -6.56640625 58.203125 C-6.56640625 47.23667031 -9.91983355 38.83698954 -16.56640625 30.203125 C-17.01757812 29.58824219 -17.46875 28.97335938 -17.93359375 28.33984375 C-27.24005716 16.48330421 -41.28027187 11.41967463 -55.7890625 9.46484375 C-75.41145967 7.6157571 -94.09533512 15.52549876 -108.24609375 28.7890625 Z " fill="#000000" transform="translate(873.56640625,207.796875)"/>
<path d="M0 0 C17.55661582 14.6341346 29.17286265 34.04883518 32.453125 56.77636719 C33.35190764 72.3829529 33.50506867 87.87156443 28.453125 102.77636719 C28.23881836 103.41670898 28.02451172 104.05705078 27.80371094 104.71679688 C19.22153778 129.76375055 1.20969647 151.03786113 -22.5390625 162.81933594 C-48.38535544 174.94728453 -77.67044329 176.43013625 -104.734375 167.52636719 C-126.61258966 159.21756207 -142.01350976 143.85430986 -151.82421875 122.78417969 C-162.37478807 98.94114973 -161.42439204 71.95836679 -152.4777832 47.79125977 C-141.7982553 20.64176042 -121.78619596 1.53298998 -95.546875 -10.22363281 C-66.14403011 -22.74355386 -25.54938989 -20.21047066 0 0 Z M-101.4296875 32.28417969 C-113.94366802 44.25259157 -123.15128391 59.96696578 -123.84765625 77.60839844 C-124.0548189 95.1545523 -121.03151883 110.728999 -108.48046875 124.00683594 C-96.80501741 134.69164292 -82.97638691 140.20213071 -67.234375 140.08886719 C-66.40478271 140.08322754 -65.57519043 140.07758789 -64.72045898 140.07177734 C-49.2890556 139.76852377 -36.10161842 133.94627244 -24.546875 123.77636719 C-23.85851562 123.17050781 -23.17015625 122.56464844 -22.4609375 121.94042969 C-10.32528478 110.54872502 -3.09120151 94.7507173 -2.29296875 78.19824219 C-1.70224271 59.49251611 -6.05202039 45.00608176 -19.0625 31.10058594 C-23.1646548 27.26287822 -27.61166084 24.42780746 -32.546875 21.77636719 C-33.30226563 21.36515625 -34.05765625 20.95394531 -34.8359375 20.53027344 C-56.72610824 10.26220366 -83.81605986 16.96175565 -101.4296875 32.28417969 Z " fill="#000000" transform="translate(369.546875,204.2236328125)"/>
<path d="M0 0 C42.24 0 84.48 0 128 0 C127 25 127 25 126 35 C96.96 35 67.92 35 38 35 C37.09966426 49.43156933 37.09966426 49.43156933 36.20556641 63.86352539 C36.08778228 65.73324937 35.9697929 67.60296044 35.8515625 69.47265625 C35.76974731 70.81837708 35.76974731 70.81837708 35.6862793 72.19128418 C34.98754946 83.14965066 33.95212751 94.05053359 33 105 C56.1 105 79.2 105 103 105 C106.96 112.425 106.96 112.425 111 120 C113.8277097 123.14467042 113.8277097 123.14467042 116.71875 126.23046875 C119.06310713 129.46825466 118.51519547 132.13603399 118 136 C117.67 137.32 117.34 138.64 117 140 C88.29 140 59.58 140 30 140 C30 144.62 30 149.24 30 154 C29.85910413 157.07992703 29.69589177 160.13366035 29.46508789 163.20507812 C29.40817276 164.01678467 29.35125763 164.82849121 29.2926178 165.66479492 C29.10747072 168.28731816 28.91527727 170.90926605 28.72265625 173.53125 C28.59017671 175.38014233 28.45805758 177.22906053 28.32627869 179.07800293 C28.05110993 182.92397826 27.77260319 186.76969162 27.49145508 190.61523438 C27.13189913 195.53506444 26.77932826 200.45536447 26.42903996 205.37586212 C26.1576014 209.18160072 25.8832622 212.98712571 25.60796928 216.79258728 C25.47688831 218.60736447 25.34652487 220.42219363 25.21690559 222.23707581 C25.03553622 224.76829191 24.85044415 227.29920876 24.66430664 229.83007812 C24.61179749 230.57197388 24.55928833 231.31386963 24.50518799 232.07824707 C24.20276698 236.13002501 23.67106695 239.97359831 23 244 C9.8 244 -3.4 244 -17 244 C-13.69115629 193.94331944 -10.28861713 143.89385961 -6.79720545 93.84958935 C-6.30114875 86.73759586 -5.80682706 79.62548249 -5.31285691 72.51334381 C-4.82612763 65.50613787 -4.33848988 58.49899557 -3.85009933 51.49190521 C-3.56293422 47.37183426 -3.27606807 43.25174317 -2.9900589 39.1315918 C-2.72511166 35.31552354 -2.45901744 31.49953692 -2.19205666 27.68360901 C-2.09531515 26.29816962 -1.99896045 24.91270315 -1.90304375 23.52720642 C-1.77118818 21.62353066 -1.63772644 19.71996635 -1.50421143 17.81640625 C-1.43050953 16.75881104 -1.35680763 15.70121582 -1.28087234 14.61157227 C-0.90178327 9.7370888 -0.44264756 4.8691232 0 0 Z " fill="#000000" transform="translate(932,128)"/>
<path d="M0 0 C11.55 0 23.1 0 35 0 C34.33543706 21.39892674 32.73154864 42.66601389 31 64 C42.22 64 53.44 64 65 64 C65 77.66153846 65 77.66153846 64.5625 83.625 C64.44068359 85.37683594 64.44068359 85.37683594 64.31640625 87.1640625 C64 90 64 90 63 92 C51.78 92 40.56 92 29 92 C28.75378906 96.23328125 28.50757813 100.4665625 28.25390625 104.828125 C26.83589428 128.53697605 25.14903667 152.22823227 23.48608398 175.92089844 C23.11635656 181.19027718 22.74883129 186.45980393 22.38354492 191.72949219 C21.93675262 198.17381216 21.48682713 204.61790552 21.03445625 211.06183624 C20.86396894 213.49703974 20.69452764 215.93231671 20.52616692 218.36766815 C20.29255381 221.74240491 20.05487783 225.11683182 19.81616211 228.49121094 C19.74809357 229.48737427 19.68002502 230.4835376 19.6098938 231.5098877 C19.54409622 232.4282843 19.47829865 233.34668091 19.4105072 234.29290771 C19.35503188 235.08611294 19.29955656 235.87931816 19.24240017 236.69655991 C18.98395686 239.15245211 18.48429963 241.57850184 18 244 C6.45 244 -5.1 244 -17 244 C-16.34136895 227.00188785 -15.32245837 210.05601655 -14.1141758 193.08880782 C-13.9166006 190.30933498 -13.72096692 187.52972668 -13.52528524 184.75011998 C-13.06444678 178.20471149 -12.60042946 171.65953401 -12.13427734 165.11450195 C-11.65430344 158.37461405 -11.17983404 151.63435382 -10.70793295 144.89389628 C-10.29994519 139.06902584 -9.88867047 133.24439395 -9.47471476 127.41994458 C-9.22856975 123.95620577 -8.98366405 120.49239087 -8.7419281 117.02834129 C-8.4740379 113.19196729 -8.19928798 109.35610197 -7.92382812 105.52026367 C-7.8448378 104.37604446 -7.76584747 103.23182526 -7.6844635 102.05293274 C-7.60880661 101.01482452 -7.53314972 99.97671631 -7.4552002 98.90715027 C-7.39105171 98.00232501 -7.32690323 97.09749975 -7.26081085 96.16525555 C-7 94 -7 94 -6 92 C-14.58 92 -23.16 92 -32 92 C-31.401875 89.23625 -30.80375 86.4725 -30.1875 83.625 C-30.00598389 82.77631348 -29.82446777 81.92762695 -29.63745117 81.05322266 C-28.35940408 75.22990045 -26.72588062 69.75293541 -25 64 C-18.07 64 -11.14 64 -4 64 C-4.02964844 62.1540625 -4.05929687 60.308125 -4.08984375 58.40625 C-4.08866821 49.06779585 -3.43422851 39.78618042 -2.77319336 30.47460938 C-2.56095905 27.47824452 -2.35710797 24.48139098 -2.15429688 21.484375 C-2.02132211 19.56246612 -1.88787568 17.6405898 -1.75390625 15.71875 C-1.66321617 14.38741028 -1.66321617 14.38741028 -1.57069397 13.0291748 C-1.48071388 11.77626648 -1.48071388 11.77626648 -1.38891602 10.49804688 C-1.33784195 9.77194214 -1.28676788 9.0458374 -1.23414612 8.29772949 C-0.95065853 5.51580082 -0.45971473 2.75828837 0 0 Z " fill="#000000" transform="translate(1226,128)"/>
<path d="M0 0 C7.54583415 6.4497912 13.20131361 13.88590768 15.09765625 23.79296875 C15.90914965 37.05776471 14.27119048 47.96389808 6.09765625 58.79296875 C-1.55277748 67.22186766 -11.08871344 73.29283082 -22.625 74.03125 C-35.33162048 74.35980627 -44.72456469 72.58820794 -54.67578125 64.05859375 C-62.18630145 56.41631004 -65.90769132 46.58911401 -66.33984375 35.98046875 C-65.94795503 22.7244067 -60.62973449 12.1555546 -51.27734375 3.04296875 C-37.11489204 -9.19407412 -15.39459184 -11.31544409 0 0 Z " fill="#FFCE00" transform="translate(1142.90234375,35.20703125)"/>
</svg>
